<?xml version="1.0" encoding="iso-8859-1"?>
<!-- Generator: Adobe Illustrator 17.1.0, SVG Export Plug-In . SVG Version: 6.00 Build 0)  -->
<!DOCTYPE svg PUBLIC "-//W3C//DTD SVG 1.1//EN" "http://www.w3.org/Graphics/SVG/1.1/DTD/svg11.dtd">
<svg version="1.1" id="Capa_1" xmlns="http://www.w3.org/2000/svg" xmlns:xlink="http://www.w3.org/1999/xlink" x="0px" y="0px"
	 viewBox="0 0 357.818 357.818" style="enable-background:new 0 0 357.818 357.818;" xml:space="preserve">
<path d="M58.347,277.676c-27.925-27.925-43.304-64.909-43.304-104.137v-46.479c0-4.418,3.582-8,8-8s8,3.582,8,8v46.479
	c0,72.477,58.964,131.441,131.439,131.441c72.478,0,131.441-58.964,131.441-131.441v-46.479c0-4.418,3.582-8,8-8s8,3.582,8,8v46.479
	c0,39.229-15.379,76.212-43.305,104.137c-27.925,27.925-64.908,43.304-104.137,43.304C123.255,320.98,86.272,305.601,58.347,277.676
	z M65.739,140.311c9.216-8.619,14.702-5.604,26.235,2.036c6.492,4.302,14.976,9.923,24.795,9.922c6.541,0,13.676-2.496,21.207-9.539
	c3.227-3.018,3.396-8.081,0.378-11.307c-3.017-3.227-8.079-3.397-11.308-0.378c-9.217,8.621-14.704,5.604-26.235-2.036
	c-10.819-7.168-27.168-17.998-46.002-0.384c-3.227,3.018-3.396,8.08-0.378,11.307C57.449,143.159,62.511,143.329,65.739,140.311z
	 M303.733,341.818H21.235c-4.418,0-8,3.582-8,8s3.582,8,8,8h282.497c4.418,0,8-3.582,8-8S308.15,341.818,303.733,341.818z
	 M54.81,173.496c-3.227,3.019-3.396,8.081-0.377,11.308c1.574,1.684,3.706,2.535,5.844,2.535c1.958,0,3.921-0.714,5.463-2.158
	c7.834-7.328,12.89-6.286,21.262-1.175c3.773,2.304,8.695,1.112,10.997-2.659c2.302-3.771,1.111-8.694-2.659-10.997
	C84.87,163.958,70.801,158.537,54.81,173.496z M168.794,196.313c-4.225-1.285-8.696,1.097-9.982,5.324l-2.532,8.32
	c-1.286,4.227,1.097,8.696,5.324,9.982c0.776,0.236,1.561,0.349,2.332,0.349c3.429,0,6.601-2.222,7.65-5.672l2.532-8.32
	C175.404,202.069,173.022,197.6,168.794,196.313z M339.316,43.768l-30.858,42.396c-7.31,10.038-20.177,13.688-31.339,9.815
	l-43.919,60.333l14.305,10.413c2.756,2.006,3.938,5.537,2.945,8.797l-20.383,66.956c-3.474,11.408-12.162,19.958-24.464,24.077
	c-5.451,1.825-11.451,2.704-17.594,2.705c-13.452,0-27.598-4.215-38.222-11.947c-0.041-0.03-0.082-0.061-0.122-0.091
	c-15.406-11.281-26.021-31.894-25.827-50.184c0.138-12.973,5.604-23.868,15.39-30.678l57.453-39.975
	c2.798-1.946,6.521-1.907,9.277,0.099l14.306,10.413l43.915-60.329c-2.696-3.57-4.492-7.78-5.21-12.339
	c-1.146-7.286,0.601-14.568,4.919-20.503l30.863-42.396c4.317-5.934,10.709-9.835,17.997-10.983c7.29-1.149,14.569,0.6,20.504,4.92
	C345.538,14.209,348.258,31.481,339.316,43.768z M201.146,152.769l-52.779,36.723c-5.575,3.88-8.445,9.84-8.529,17.714
	c-0.141,13.266,8.003,28.896,19.364,37.166c0.034,0.025,0.068,0.05,0.103,0.076c11.364,8.216,28.679,11.133,41.22,6.934
	c7.467-2.5,12.257-7.063,14.236-13.564l18.725-61.508L201.146,152.769z M323.835,18.199c-1.979-1.44-4.324-2.195-6.749-2.195
	c-0.613,0-1.23,0.048-1.849,0.145c-3.064,0.483-5.746,2.114-7.55,4.593l-18.802,25.83c0,0-0.001,0.001-0.001,0.001l-12.061,16.565
	c-1.805,2.479-2.532,5.534-2.05,8.6c0.482,3.065,2.113,5.747,4.594,7.551c5.154,3.752,12.399,2.61,16.154-2.545l30.856-42.394
	C330.131,29.198,328.989,21.952,323.835,18.199z M195.642,184.337l-11.25,36.959c-1.286,4.227,1.097,8.696,5.324,9.983
	c0.776,0.236,1.561,0.349,2.332,0.349c3.429,0,6.601-2.222,7.65-5.672l11.25-36.959c1.286-4.227-1.097-8.696-5.324-9.983
	C201.398,177.728,196.928,180.111,195.642,184.337z"/>
<g>
</g>
<g>
</g>
<g>
</g>
<g>
</g>
<g>
</g>
<g>
</g>
<g>
</g>
<g>
</g>
<g>
</g>
<g>
</g>
<g>
</g>
<g>
</g>
<g>
</g>
<g>
</g>
<g>
</g>
</svg>
