<svg xmlns="http://www.w3.org/2000/svg" width="19.869" height="16.583" viewBox="0 0 19.869 16.583">
  <g id="Icon_feather-users" data-name="Icon feather-users" transform="translate(0.75 0.804)">
    <path id="Path_374" data-name="Path 374" d="M14.859,27.51V25.84a3.34,3.34,0,0,0-3.34-3.34H4.84A3.34,3.34,0,0,0,1.5,25.84v1.67" transform="translate(-1.5 -12.481)" fill="none" stroke="#5e5e5e" stroke-linecap="round" stroke-linejoin="round" stroke-width="1.5"/>
    <path id="Path_375" data-name="Path 375" d="M14.179,7.84A3.34,3.34,0,1,1,10.84,4.5,3.34,3.34,0,0,1,14.179,7.84Z" transform="translate(-4.16 -4.5)" fill="none" stroke="#5e5e5e" stroke-linecap="round" stroke-linejoin="round" stroke-width="1.5"/>
    <path id="Path_376" data-name="Path 376" d="M32.5,27.6v-1.67A3.34,3.34,0,0,0,30,22.7" transform="translate(-14.136 -12.567)" fill="none" stroke="#5e5e5e" stroke-linecap="round" stroke-linejoin="round" stroke-width="1.5"/>
    <path id="Path_377" data-name="Path 377" d="M24,4.7a3.34,3.34,0,0,1,0,6.471" transform="translate(-11.476 -4.586)" fill="none" stroke="#5e5e5e" stroke-linecap="round" stroke-linejoin="round" stroke-width="1.5"/>
  </g>
</svg>
