<svg id="Outline" xmlns="http://www.w3.org/2000/svg" width="20" height="20" viewBox="0 0 20.312 20.312">
  <path id="Path_384" data-name="Path 384" d="M80.763,86.287a10.16,10.16,0,0,0,14.23,12.8l-.441-.811a9.229,9.229,0,0,1-9.934-.738,2.591,2.591,0,0,0,.75-.156,13.91,13.91,0,0,1,9.576,0,2.542,2.542,0,0,0,2.36-.31,2.765,2.765,0,0,0-.593-4.826A19.044,19.044,0,0,0,84.334,92a1.765,1.765,0,0,1-1.565-1.8,1.854,1.854,0,0,1,.32-1.048,1.718,1.718,0,0,1,.83-.653l.02-.008c.2-.072.4-.141.593-.205a18.218,18.218,0,0,1,2.022-.535l-.184-.9a19.13,19.13,0,0,0-2.038.534,1.765,1.765,0,0,1-1.563-1.8,1.854,1.854,0,0,1,.32-1.048,1.718,1.718,0,0,1,.83-.653l.02-.008a18.106,18.106,0,0,1,6.216-1.1l.923.024a18.093,18.093,0,0,1,5.293,1.075l.02.008a1.8,1.8,0,0,1,1.15,1.7,1.765,1.765,0,0,1-1.564,1.8,19.084,19.084,0,0,0-8.662-.7l.138.913a18.156,18.156,0,0,1,8.324.695c.2.064.4.133.593.205l.021.008a1.8,1.8,0,0,1,1.15,1.7,1.835,1.835,0,0,1-.368,1.117l.736.557a2.784,2.784,0,0,0-.678-3.98,2.724,2.724,0,0,0,1.194-1.839,9.244,9.244,0,0,1,.438,7.18l.871.308A10.159,10.159,0,0,0,84.835,81.5l.484.786a9.227,9.227,0,0,1,10.142.315,19.05,19.05,0,0,0-11.861.409l-.023.009a2.637,2.637,0,0,0-1.252.992,2.774,2.774,0,0,0-.48,1.567,2.743,2.743,0,0,0,1.233,2.31,2.666,2.666,0,0,0-.753.739,2.774,2.774,0,0,0-.48,1.567,2.743,2.743,0,0,0,1.233,2.31A2.738,2.738,0,0,0,81.9,94.281a9.24,9.24,0,0,1-.281-7.642Zm3.156,6.827a18.121,18.121,0,0,1,9.468-.816h0l.923.193a18.038,18.038,0,0,1,2.082.624,1.8,1.8,0,0,1,1.15,1.7,1.825,1.825,0,0,1-.767,1.5,1.631,1.631,0,0,1-1.514.2,14.834,14.834,0,0,0-10.212,0,1.631,1.631,0,0,1-1.514-.2,1.825,1.825,0,0,1-.767-1.5,1.8,1.8,0,0,1,1.15-1.7Z" transform="translate(-80 -80)" fill="#5e5e5e"/>
  <path id="Path_385" data-name="Path 385" d="M0,0H2.611V.923H0Z" transform="translate(10.75 5.214) rotate(-45)" fill="#5e5e5e"/>
  <path id="Path_386" data-name="Path 386" d="M0,0H2.611V.923H0Z" transform="translate(13.52 5.676) rotate(-45)" fill="#5e5e5e"/>
  <path id="Path_387" data-name="Path 387" d="M0,0H2.611V.923H0Z" transform="translate(7.519 5.214) rotate(-45)" fill="#5e5e5e"/>
  <path id="Path_388" data-name="Path 388" d="M0,0H2.611V.923H0Z" transform="translate(4.288 5.675) rotate(-45)" fill="#5e5e5e"/>
  <path id="Path_389" data-name="Path 389" d="M0,0H2.611V.923H0Z" transform="translate(10.75 9.83) rotate(-45)" fill="#5e5e5e"/>
  <path id="Path_390" data-name="Path 390" d="M0,0H2.611V.923H0Z" transform="translate(13.519 10.292) rotate(-45)" fill="#5e5e5e"/>
  <path id="Path_391" data-name="Path 391" d="M0,0H2.611V.923H0Z" transform="translate(7.519 9.829) rotate(-45)" fill="#5e5e5e"/>
  <path id="Path_392" data-name="Path 392" d="M0,0H2.611V.923H0Z" transform="translate(4.288 10.291) rotate(-45)" fill="#5e5e5e"/>
  <path id="Path_393" data-name="Path 393" d="M0,0H2.611V.923H0Z" transform="translate(10.749 14.446) rotate(-45)" fill="#5e5e5e"/>
  <path id="Path_394" data-name="Path 394" d="M0,0H2.611V.923H0Z" transform="translate(13.519 14.908) rotate(-45)" fill="#5e5e5e"/>
  <path id="Path_395" data-name="Path 395" d="M0,0H2.611V.923H0Z" transform="translate(7.518 14.445) rotate(-45)" fill="#5e5e5e"/>
  <path id="Path_396" data-name="Path 396" d="M0,0H2.611V.923H0Z" transform="translate(4.287 14.907) rotate(-45)" fill="#5e5e5e"/>
  <path id="Path_399" data-name="Path 399" d="M136,240h.923v.923H136Z" transform="translate(-132.768 -230.767)" fill="#5e5e5e"/>
</svg>
