<svg id="menu" xmlns="http://www.w3.org/2000/svg" width="22" height="18" viewBox="0 0 22 21.998">
  <g id="Group_41" data-name="Group 41">
    <g id="Group_35" data-name="Group 35" transform="translate(11.363)">
      <path id="Path_378" data-name="Path 378" d="M244.775,26.621a.468.468,0,0,1-.3-.11,17.319,17.319,0,0,1-2.12-2.028,1.858,1.858,0,0,1-.334-1.156,1.668,1.668,0,0,1,1.649-1.6,1.549,1.549,0,0,0,2.217,0,1.668,1.668,0,0,1,1.649,1.6,1.856,1.856,0,0,1-.334,1.156,17.473,17.473,0,0,1-2.124,2.028A.469.469,0,0,1,244.775,26.621Zm-1.106-3.95a.738.738,0,0,0-.712.707.915.915,0,0,0,.181.59,14.279,14.279,0,0,0,1.637,1.568,14.43,14.43,0,0,0,1.641-1.568.912.912,0,0,0,.181-.589.738.738,0,0,0-.712-.707c-.33,0-.65.381-.717.483a.47.47,0,0,1-.775.011C244.3,23.037,243.972,22.671,243.669,22.671Z" transform="translate(-242.017 -21.732)" fill="#5e5e5e"/>
    </g>
    <g id="Group_37" data-name="Group 37" transform="translate(16.375 3.332)">
      <g id="Group_36" data-name="Group 36">
        <path id="Path_379" data-name="Path 379" d="M352.6,99.43a.468.468,0,0,1-.3-.11,26.276,26.276,0,0,1-3.069-2.929,2.519,2.519,0,0,1-.454-1.564,2.228,2.228,0,0,1,2.2-2.134,2.108,2.108,0,0,0,3.254,0,2.228,2.228,0,0,1,2.2,2.134,2.514,2.514,0,0,1-.455,1.564A26.528,26.528,0,0,1,352.9,99.32.468.468,0,0,1,352.6,99.43Zm-1.624-5.8a1.306,1.306,0,0,0-1.264,1.245,1.563,1.563,0,0,0,.3,1,21.926,21.926,0,0,0,2.586,2.47,22.149,22.149,0,0,0,2.592-2.471,1.559,1.559,0,0,0,.3-1,1.306,1.306,0,0,0-1.264-1.245,1.807,1.807,0,0,0-1.237.808.47.47,0,0,1-.774.009A1.91,1.91,0,0,0,350.975,93.632Z" transform="translate(-348.77 -92.693)" fill="#5e5e5e"/>
      </g>
    </g>
    <g id="Group_40" data-name="Group 40" transform="translate(0 5.079)">
      <g id="Group_39" data-name="Group 39" transform="translate(11.559 15.981)">
        <g id="Group_38" data-name="Group 38">
          <path id="Path_380" data-name="Path 380" d="M246.669,471.226a.469.469,0,1,1,.461-.378A.474.474,0,0,1,246.669,471.226Z" transform="translate(-246.2 -470.288)" fill="#5e5e5e"/>
        </g>
      </g>
      <path id="Path_381" data-name="Path 381" d="M22.381,143.512h-.547v-.828A9.83,9.83,0,0,0,13.6,133a1.95,1.95,0,1,0-3.164,0,9.83,9.83,0,0,0-8.232,9.686v.828H1.659a1.658,1.658,0,1,0,0,3.317H9.9a.47.47,0,0,0,0-.939H1.659a.719.719,0,1,1,0-1.439H22.381a.719.719,0,0,1,0,1.439H14.142a.47.47,0,0,0,0,.939h8.239a1.658,1.658,0,0,0,0-3.317ZM11.009,131.86a1.011,1.011,0,1,1,1.011,1.011A1.012,1.012,0,0,1,11.009,131.86ZM3.145,143.512v-.828a8.875,8.875,0,0,1,17.75,0v.828Z" transform="translate(0 -129.91)" fill="#5e5e5e"/>
    </g>
  </g>
</svg>
